<svg xmlns="http://www.w3.org/2000/svg" version="1.1" xmlns:xlink="http://www.w3.org/1999/xlink" xmlns:svgjs="http://svgjs.com/svgjs" width="1920" height="1280" preserveAspectRatio="none" viewBox="0 0 1920 1280"><g mask="url(&quot;#SvgjsMask2010&quot;)" fill="none"><rect width="1920" height="1280" x="0" y="0" fill="rgba(255, 255, 255, 1)"></rect><use xlink:href="#SvgjsG2018" transform="translate(0, 0)" fill="rgba(147, 163, 177, 1)"></use><use xlink:href="#SvgjsG2018" transform="translate(0, 945)" fill="rgba(96, 114, 131, 1)"></use><use xlink:href="#SvgjsG2018" transform="translate(945, 0)" fill="rgba(96, 114, 131, 1)"></use><use xlink:href="#SvgjsG2018" transform="translate(945, 945)" fill="rgba(110, 137, 225, 1)"></use><use xlink:href="#SvgjsG2018" transform="translate(1890, 0)" fill="rgba(96, 114, 131, 1)"></use><use xlink:href="#SvgjsG2018" transform="translate(1890, 945)" fill="rgba(147, 163, 177, 1)"></use></g><defs><mask id="SvgjsMask2010"><rect width="1920" height="1280" fill="#ffffff"></rect></mask><g id="SvgjsG2011"><path d="M10.62 2.04a0.29 0.29 0 0 0 0.08 0.18c0.12 0.11 0.3 0.11 0.42 0 0.04-0.04 0.06-0.08 0.07-0.13l0.3-0.78a0.47 0.47 0 0 0-0.12-0.48 0.47 0.47 0 0 0-0.8 0.34L10.61 2.04z m0.67 0.85c-0.02 0.07-0.06 0.13-0.11 0.18-0.21 0.22-0.56 0.22-0.77 0.02-0.08-0.08-0.13-0.17-0.15-0.28l-0.18-1.69a0.97 0.97 0 0 1 0.27-0.61c0.37-0.38 0.98-0.4 1.36-0.04 0.28 0.27 0.36 0.69 0.22 1.04L11.29 2.89zM13.64 6.51a0.29 0.29 0 0 1 0.01 0.4l-0.31 0.33c-0.11 0.12-0.3 0.12-0.41 0.01l-0.19-0.2c0.09 0.37 0.01 0.78-0.27 1.08l-6.83 7.08c-0.35 0.36-0.92 0.38-1.28 0.04L0.64 11.66A0.91 0.91 0 0 1 0.63 10.38l6.84-7.08c0.29-0.3 0.7-0.39 1.06-0.31l-0.19-0.18a0.28 0.28 0 0 1-0.01-0.4L8.64 2.08c0.11-0.11 0.29-0.12 0.41-0.01L13.64 6.51z" fill-rule="evenodd"></path></g><g id="SvgjsG2012"><path d="M10.2 15.89L-0.62 5.44c-0.93 0.96-0.62 2.11-0.04 2.68l8.19 7.91c0.7 0.68 1.85 0.72 2.67-0.14zM15.54 7.17L7.64-0.46l-5 5.19c-0.68 0.7-0.61 1.84 0.04 2.48l5.12 4.94c0.74 0.72 1.84 0.58 2.46-0.05L10.68 11.67c1.46 1.41 3.58 1.34 4.82 0.05 1.26-1.31 1.26-3.38 0.04-4.54z m-0.97 3.65c-0.72 0.75-1.96 0.93-2.94-0.14L14.33 7.89l0.27 0.26 0 0c1 0.97 0.41 2.22-0.04 2.68l0.01-0.01z"></path></g><g id="SvgjsG2013"><path d="M8.58 6.64c-0.46 0.47-1.38 0.56-1.94 0.03l-4.75 4.91c-1.1 1.14-2.65-0.36-1.55-1.5L5.09 5.17c-0.55-0.53-0.62-1.41-0.01-2.04L9.34-1.27c0.37-0.38 0.94 0.14 0.54 0.55l-3.15 3.26 0.46 0.44L10.37-0.3c0.34-0.35 0.9 0.14 0.52 0.53l-3.16 3.27 0.48 0.46L11.38 0.68c0.36-0.37 0.89 0.12 0.5 0.51l-3.15 3.27 0.47 0.46L12.37 1.64c0.35-0.36 0.91 0.14 0.52 0.53L8.58 6.64z m7.46 0.54l-9.02 9.34c-1.07 1.11-2.61-0.4-1.55-1.5l3.41-3.53-0.82-0.8L13.66 4.89c1.69-1.75 4.06 0.55 2.38 2.29z"></path></g><g id="SvgjsG2015"><path d="M13.52 8.11l-9.22 7.41L0.68 12.02 7.76 2.55l4.42 4.27L16.01 4.61 16.37 5.23l-3.65 2.1 0.8 0.78z" fill-rule="evenodd"></path></g><g id="SvgjsG2017"><path d="M15.97 11.21l-8.12 6.52L4.67 14.65 10.9 6.32l3.89 3.75L18.15 8.13 18.47 8.67l-3.21 1.85 0.71 0.69zM6.27 10.21s1.16-0.97-0.49-2.56L3.15 5.1c-1.65-1.59-2.58-0.4-2.58-0.4l5.7 5.51zM-1.38 6.72s-1.16 0.97 0.49 2.57l2.63 2.54c1.65 1.6 2.58 0.4 2.58 0.4L-1.38 6.72z m5.96 4.74a0.68 0.68 0 0 0 0.96-0.01c0.26-0.27 0.25-0.7-0.02-0.96L0.29 5.44C0.03 5.18-0.41 5.19-0.66 5.46a0.68 0.68 0 0 0 0.01 0.96l5.23 5.04z"></path></g><g id="SvgjsG2016"><path d="M3.66 6.07c1.41 1.36 1.45 3.6 0.09 5.01l-1.7 1.71 3 2.9 10.12-5.04 2.52-2.58-9.12-8.8-5.77 5.96 0.86 0.84z" fill-rule="evenodd"></path><path d="M-0.76 6.73c1.03-1.06 2.72-1.09 3.78-0.07 1.06 1.03 1.09 2.72 0.07 3.79-1.03 1.06-2.72 1.09-3.79 0.06C-1.76 9.49-1.79 7.79-0.76 6.73z m1.12 2.69a1.16 1.16 0 1 0 1.61-1.67 1.16 1.16 0 0 0-1.61 1.67zM9.48-1.69l9.17 8.85-0.57 0.59-9.17-8.86z" fill-rule="evenodd"></path></g><g id="SvgjsG2014"><path d="M2.03 13.33C3.79 11.61 3.47 10.01 2.72 8.43c-1.86 1.14-2 3.44-0.69 4.9m7.91-7.66c2.3-0.88 2.65-2.48 2.58-4.23-2.15 0.32-3.19 2.38-2.58 4.23m-3.89 4.88c1.66-1.82 3.27-1.56 4.87-0.86-1.08 1.89-3.37 2.12-4.87 0.86m-2.64 2.74c1.66-1.82 3.27-1.56 4.87-0.87-1.07 1.89-3.37 2.12-4.87 0.87m5.27-5.47c1.66-1.82 3.27-1.56 4.88-0.87-1.08 1.9-3.37 2.12-4.88 0.87M4.67 10.6C6.43 8.88 6.12 7.27 5.36 5.7c-1.86 1.14-2 3.44-0.69 4.9m2.64-2.73C9.07 6.14 8.76 4.54 8.01 2.96c-1.86 1.14-2 3.45-0.7 4.91" fill-rule="evenodd"></path></g><g id="SvgjsG2018"><use xlink:href="#SvgjsG2011" transform="translate(0, 0) scale(2.1)" fill="rgba(96, 114, 131, 1)"></use><use xlink:href="#SvgjsG2011" transform="translate(0, 94.5) scale(2.1)" fill="rgba(96, 114, 131, 1)"></use><use xlink:href="#SvgjsG2012" transform="translate(0, 189) scale(2.1)" fill="rgba(147, 163, 177, 1)"></use><use xlink:href="#SvgjsG2013" transform="translate(0, 283.5) scale(2.1)" fill="rgba(175, 175, 175, 1)"></use><use xlink:href="#SvgjsG2014" transform="translate(0, 378) scale(2.1)" fill="rgba(147, 163, 177, 1)"></use><use xlink:href="#SvgjsG2015" transform="translate(0, 472.5) scale(2.1)" fill="rgba(175, 175, 175, 1)"></use><use xlink:href="#SvgjsG2014" transform="translate(0, 567) scale(2.1)" fill="rgba(96, 114, 131, 1)"></use><use xlink:href="#SvgjsG2014" transform="translate(0, 661.5) scale(2.1)" fill="rgba(96, 114, 131, 1)"></use><use xlink:href="#SvgjsG2013" transform="translate(0, 756) scale(2.1)" fill="rgba(175, 175, 175, 1)"></use><use xlink:href="#SvgjsG2016" transform="translate(0, 850.5) scale(2.1)" fill="rgba(93, 149, 199, 1)"></use><use xlink:href="#SvgjsG2017" transform="translate(94.5, 0) scale(2.1)" fill="rgba(93, 149, 199, 1)"></use><use xlink:href="#SvgjsG2015" transform="translate(94.5, 94.5) scale(2.1)" fill="rgba(93, 149, 199, 1)"></use><use xlink:href="#SvgjsG2013" transform="translate(94.5, 189) scale(2.1)" fill="rgba(110, 137, 225, 1)"></use><use xlink:href="#SvgjsG2012" transform="translate(94.5, 283.5) scale(2.1)" fill="rgba(93, 149, 199, 1)"></use><use xlink:href="#SvgjsG2016" transform="translate(94.5, 378) scale(2.1)" fill="rgba(110, 137, 225, 1)"></use><use xlink:href="#SvgjsG2011" transform="translate(94.5, 472.5) scale(2.1)" fill="rgba(93, 149, 199, 1)"></use><use xlink:href="#SvgjsG2017" transform="translate(94.5, 567) scale(2.1)" fill="rgba(175, 175, 175, 1)"></use><use xlink:href="#SvgjsG2013" transform="translate(94.5, 661.5) scale(2.1)" fill="rgba(110, 137, 225, 1)"></use><use xlink:href="#SvgjsG2017" transform="translate(94.5, 756) scale(2.1)" fill="rgba(110, 137, 225, 1)"></use><use xlink:href="#SvgjsG2017" transform="translate(94.5, 850.5) scale(2.1)" fill="rgba(110, 137, 225, 1)"></use><use xlink:href="#SvgjsG2016" transform="translate(189, 0) scale(2.1)" fill="rgba(96, 114, 131, 1)"></use><use xlink:href="#SvgjsG2013" transform="translate(189, 94.5) scale(2.1)" fill="rgba(147, 163, 177, 1)"></use><use xlink:href="#SvgjsG2016" transform="translate(189, 189) scale(2.1)" fill="rgba(96, 114, 131, 1)"></use><use xlink:href="#SvgjsG2013" transform="translate(189, 283.5) scale(2.1)" fill="rgba(175, 175, 175, 1)"></use><use xlink:href="#SvgjsG2012" transform="translate(189, 378) scale(2.1)" fill="rgba(110, 137, 225, 1)"></use><use xlink:href="#SvgjsG2017" transform="translate(189, 472.5) scale(2.1)" fill="rgba(147, 163, 177, 1)"></use><use xlink:href="#SvgjsG2012" transform="translate(189, 567) scale(2.1)" fill="rgba(147, 163, 177, 1)"></use><use xlink:href="#SvgjsG2012" transform="translate(189, 661.5) scale(2.1)" fill="rgba(175, 175, 175, 1)"></use><use xlink:href="#SvgjsG2012" transform="translate(189, 756) scale(2.1)" fill="rgba(96, 114, 131, 1)"></use><use xlink:href="#SvgjsG2017" transform="translate(189, 850.5) scale(2.1)" fill="rgba(175, 175, 175, 1)"></use><use xlink:href="#SvgjsG2012" transform="translate(283.5, 0) scale(2.1)" fill="rgba(147, 163, 177, 1)"></use><use xlink:href="#SvgjsG2012" transform="translate(283.5, 94.5) scale(2.1)" fill="rgba(175, 175, 175, 1)"></use><use xlink:href="#SvgjsG2011" transform="translate(283.5, 189) scale(2.1)" fill="rgba(147, 163, 177, 1)"></use><use xlink:href="#SvgjsG2012" transform="translate(283.5, 283.5) scale(2.1)" fill="rgba(147, 163, 177, 1)"></use><use xlink:href="#SvgjsG2016" transform="translate(283.5, 378) scale(2.1)" fill="rgba(96, 114, 131, 1)"></use><use xlink:href="#SvgjsG2013" transform="translate(283.5, 472.5) scale(2.1)" fill="rgba(96, 114, 131, 1)"></use><use xlink:href="#SvgjsG2012" transform="translate(283.5, 567) scale(2.1)" fill="rgba(175, 175, 175, 1)"></use><use xlink:href="#SvgjsG2017" transform="translate(283.5, 661.5) scale(2.1)" fill="rgba(96, 114, 131, 1)"></use><use xlink:href="#SvgjsG2014" transform="translate(283.5, 756) scale(2.1)" fill="rgba(110, 137, 225, 1)"></use><use xlink:href="#SvgjsG2016" transform="translate(283.5, 850.5) scale(2.1)" fill="rgba(175, 175, 175, 1)"></use><use xlink:href="#SvgjsG2012" transform="translate(378, 0) scale(2.1)" fill="rgba(147, 163, 177, 1)"></use><use xlink:href="#SvgjsG2012" transform="translate(378, 94.5) scale(2.1)" fill="rgba(96, 114, 131, 1)"></use><use xlink:href="#SvgjsG2017" transform="translate(378, 189) scale(2.1)" fill="rgba(110, 137, 225, 1)"></use><use xlink:href="#SvgjsG2016" transform="translate(378, 283.5) scale(2.1)" fill="rgba(110, 137, 225, 1)"></use><use xlink:href="#SvgjsG2017" transform="translate(378, 378) scale(2.1)" fill="rgba(93, 149, 199, 1)"></use><use xlink:href="#SvgjsG2011" transform="translate(378, 472.5) scale(2.1)" fill="rgba(175, 175, 175, 1)"></use><use xlink:href="#SvgjsG2011" transform="translate(378, 567) scale(2.1)" fill="rgba(110, 137, 225, 1)"></use><use xlink:href="#SvgjsG2012" transform="translate(378, 661.5) scale(2.1)" fill="rgba(93, 149, 199, 1)"></use><use xlink:href="#SvgjsG2016" transform="translate(378, 756) scale(2.1)" fill="rgba(175, 175, 175, 1)"></use><use xlink:href="#SvgjsG2017" transform="translate(378, 850.5) scale(2.1)" fill="rgba(175, 175, 175, 1)"></use><use xlink:href="#SvgjsG2011" transform="translate(472.5, 0) scale(2.1)" fill="rgba(96, 114, 131, 1)"></use><use xlink:href="#SvgjsG2014" transform="translate(472.5, 94.5) scale(2.1)" fill="rgba(110, 137, 225, 1)"></use><use xlink:href="#SvgjsG2011" transform="translate(472.5, 189) scale(2.1)" fill="rgba(110, 137, 225, 1)"></use><use xlink:href="#SvgjsG2015" transform="translate(472.5, 283.5) scale(2.1)" fill="rgba(93, 149, 199, 1)"></use><use xlink:href="#SvgjsG2013" transform="translate(472.5, 378) scale(2.1)" fill="rgba(147, 163, 177, 1)"></use><use xlink:href="#SvgjsG2014" transform="translate(472.5, 472.5) scale(2.1)" fill="rgba(110, 137, 225, 1)"></use><use xlink:href="#SvgjsG2017" transform="translate(472.5, 567) scale(2.1)" fill="rgba(96, 114, 131, 1)"></use><use xlink:href="#SvgjsG2016" transform="translate(472.5, 661.5) scale(2.1)" fill="rgba(93, 149, 199, 1)"></use><use xlink:href="#SvgjsG2013" transform="translate(472.5, 756) scale(2.1)" fill="rgba(110, 137, 225, 1)"></use><use xlink:href="#SvgjsG2011" transform="translate(472.5, 850.5) scale(2.1)" fill="rgba(175, 175, 175, 1)"></use><use xlink:href="#SvgjsG2017" transform="translate(567, 0) scale(2.1)" fill="rgba(147, 163, 177, 1)"></use><use xlink:href="#SvgjsG2016" transform="translate(567, 94.5) scale(2.1)" fill="rgba(96, 114, 131, 1)"></use><use xlink:href="#SvgjsG2014" transform="translate(567, 189) scale(2.1)" fill="rgba(93, 149, 199, 1)"></use><use xlink:href="#SvgjsG2013" transform="translate(567, 283.5) scale(2.1)" fill="rgba(93, 149, 199, 1)"></use><use xlink:href="#SvgjsG2013" transform="translate(567, 378) scale(2.1)" fill="rgba(93, 149, 199, 1)"></use><use xlink:href="#SvgjsG2014" transform="translate(567, 472.5) scale(2.1)" fill="rgba(96, 114, 131, 1)"></use><use xlink:href="#SvgjsG2011" transform="translate(567, 567) scale(2.1)" fill="rgba(175, 175, 175, 1)"></use><use xlink:href="#SvgjsG2011" transform="translate(567, 661.5) scale(2.1)" fill="rgba(96, 114, 131, 1)"></use><use xlink:href="#SvgjsG2011" transform="translate(567, 756) scale(2.1)" fill="rgba(96, 114, 131, 1)"></use><use xlink:href="#SvgjsG2013" transform="translate(567, 850.5) scale(2.1)" fill="rgba(93, 149, 199, 1)"></use><use xlink:href="#SvgjsG2011" transform="translate(661.5, 0) scale(2.1)" fill="rgba(110, 137, 225, 1)"></use><use xlink:href="#SvgjsG2011" transform="translate(661.5, 94.5) scale(2.1)" fill="rgba(96, 114, 131, 1)"></use><use xlink:href="#SvgjsG2013" transform="translate(661.5, 189) scale(2.1)" fill="rgba(175, 175, 175, 1)"></use><use xlink:href="#SvgjsG2016" transform="translate(661.5, 283.5) scale(2.1)" fill="rgba(175, 175, 175, 1)"></use><use xlink:href="#SvgjsG2011" transform="translate(661.5, 378) scale(2.1)" fill="rgba(147, 163, 177, 1)"></use><use xlink:href="#SvgjsG2012" transform="translate(661.5, 472.5) scale(2.1)" fill="rgba(93, 149, 199, 1)"></use><use xlink:href="#SvgjsG2014" transform="translate(661.5, 567) scale(2.1)" fill="rgba(147, 163, 177, 1)"></use><use xlink:href="#SvgjsG2013" transform="translate(661.5, 661.5) scale(2.1)" fill="rgba(93, 149, 199, 1)"></use><use xlink:href="#SvgjsG2013" transform="translate(661.5, 756) scale(2.1)" fill="rgba(147, 163, 177, 1)"></use><use xlink:href="#SvgjsG2013" transform="translate(661.5, 850.5) scale(2.1)" fill="rgba(110, 137, 225, 1)"></use><use xlink:href="#SvgjsG2016" transform="translate(756, 0) scale(2.1)" fill="rgba(147, 163, 177, 1)"></use><use xlink:href="#SvgjsG2016" transform="translate(756, 94.5) scale(2.1)" fill="rgba(147, 163, 177, 1)"></use><use xlink:href="#SvgjsG2016" transform="translate(756, 189) scale(2.1)" fill="rgba(110, 137, 225, 1)"></use><use xlink:href="#SvgjsG2011" transform="translate(756, 283.5) scale(2.1)" fill="rgba(96, 114, 131, 1)"></use><use xlink:href="#SvgjsG2013" transform="translate(756, 378) scale(2.1)" fill="rgba(96, 114, 131, 1)"></use><use xlink:href="#SvgjsG2015" transform="translate(756, 472.5) scale(2.1)" fill="rgba(175, 175, 175, 1)"></use><use xlink:href="#SvgjsG2012" transform="translate(756, 567) scale(2.1)" fill="rgba(96, 114, 131, 1)"></use><use xlink:href="#SvgjsG2014" transform="translate(756, 661.5) scale(2.1)" fill="rgba(110, 137, 225, 1)"></use><use xlink:href="#SvgjsG2011" transform="translate(756, 756) scale(2.1)" fill="rgba(110, 137, 225, 1)"></use><use xlink:href="#SvgjsG2011" transform="translate(756, 850.5) scale(2.1)" fill="rgba(93, 149, 199, 1)"></use><use xlink:href="#SvgjsG2017" transform="translate(850.5, 0) scale(2.1)" fill="rgba(96, 114, 131, 1)"></use><use xlink:href="#SvgjsG2012" transform="translate(850.5, 94.5) scale(2.1)" fill="rgba(96, 114, 131, 1)"></use><use xlink:href="#SvgjsG2013" transform="translate(850.5, 189) scale(2.1)" fill="rgba(147, 163, 177, 1)"></use><use xlink:href="#SvgjsG2016" transform="translate(850.5, 283.5) scale(2.1)" fill="rgba(110, 137, 225, 1)"></use><use xlink:href="#SvgjsG2013" transform="translate(850.5, 378) scale(2.1)" fill="rgba(110, 137, 225, 1)"></use><use xlink:href="#SvgjsG2015" transform="translate(850.5, 472.5) scale(2.1)" fill="rgba(110, 137, 225, 1)"></use><use xlink:href="#SvgjsG2014" transform="translate(850.5, 567) scale(2.1)" fill="rgba(175, 175, 175, 1)"></use><use xlink:href="#SvgjsG2017" transform="translate(850.5, 661.5) scale(2.1)" fill="rgba(147, 163, 177, 1)"></use><use xlink:href="#SvgjsG2016" transform="translate(850.5, 756) scale(2.1)" fill="rgba(147, 163, 177, 1)"></use><use xlink:href="#SvgjsG2017" transform="translate(850.5, 850.5) scale(2.1)" fill="rgba(93, 149, 199, 1)"></use></g></defs></svg>