<svg xmlns="http://www.w3.org/2000/svg" version="1.1" xmlns:xlink="http://www.w3.org/1999/xlink" xmlns:svgjs="http://svgjs.com/svgjs" width="1920" height="1280" preserveAspectRatio="none" viewBox="0 0 1920 1280"><g mask="url(&quot;#SvgjsMask1215&quot;)" fill="none"><rect width="1920" height="1280" x="0" y="0" fill="rgba(255, 255, 255, 1)"></rect><use xlink:href="#SvgjsG1224" transform="translate(0, 0)" fill="rgba(175, 175, 175, 1)"></use><use xlink:href="#SvgjsG1224" transform="translate(0, 945)" fill="rgba(125, 125, 125, 0.53)"></use><use xlink:href="#SvgjsG1224" transform="translate(945, 0)" fill="rgba(178, 0, 0, 0.35)"></use><use xlink:href="#SvgjsG1224" transform="translate(945, 945)" fill="rgba(166, 0, 0, 0.31)"></use><use xlink:href="#SvgjsG1224" transform="translate(1890, 0)" fill="rgba(166, 0, 0, 0.31)"></use><use xlink:href="#SvgjsG1224" transform="translate(1890, 945)" fill="rgba(178, 0, 0, 0.35)"></use></g><defs><mask id="SvgjsMask1215"><rect width="1920" height="1280" fill="#ffffff"></rect></mask><g id="SvgjsG1218"><path d="M1.53 7.57L3.79 5.23c1.97-2.04 5.42-2.05 7.57 0.02 2.18 2.1 2.3 5.49 0.29 7.57l-2.26 2.34 0.97 0.94L12.62 13.76C15.17 11.13 15.01 6.88 12.31 4.27 9.62 1.68 5.31 1.7 2.81 4.28l-2.26 2.35 0.98 0.94z"></path><path d="M1.52 11.06l-1.29-1.23L3.79 6.15l1.28 1.24c-0.99 2.35-3.55 3.68-3.55 3.67m7.9 0.53L10.7 12.83 7.16 16.5l-1.29-1.23c0.99-2.35 3.55-3.68 3.55-3.68"></path></g><g id="SvgjsG1222"><path d="M7.15 14.17L1.31 8.54 8.67 0.92l5.84 5.63-7.36 7.62z m-3.99-1.71a0.46 0.46 0 1 1 0.64-0.65 0.46 0.46 0 0 1-0.64 0.65zM11.89 2.42l1 0.97c0.14 0.14-0.11 0.39-0.25 0.26l-1-0.97c-0.14-0.14 0.1-0.39 0.25-0.26zM15.79 4.97L10.21-0.42C9.97-0.65 9.53-0.58 9.24-0.27L0.15 9.14c-0.3 0.31-0.35 0.75-0.11 0.98l5.57 5.38c0.24 0.23 0.68 0.17 0.98-0.14L15.68 5.95c0.3-0.31 0.35-0.75 0.11-0.98z" fill-rule="evenodd"></path></g><g id="SvgjsG1220"><path d="M10.02 17.09l0 0s-0.08-4.27-0.07-4.28a0.6 0.6 0 0 0-0.62-0.59L7.36 12.26c-0.76 0.01-0.93-0.82-1.14-2.53-0.14-1.13-0.19-2.54-0.07-3.95 0.09-0.98 0.25-1.94 1.06-1.95 0 0 1.97-0.03 1.97-0.04l0 0c0.35-0.01 0.6-0.3 0.6-0.62l0 0L9.7-1.23c-0.01-0.34-0.29-0.6-0.62-0.6L7.1-1.79C6.19-1.67 2.87-0.09 2.91 7.79c0.04 8.3 3.61 9.98 4.54 9.95 0 0 1.97-0.02 1.97-0.03l0 0c0.35-0.01 0.6-0.3 0.6-0.62z"></path></g><g id="SvgjsG1217"><path d="M6.31 0.24l-4.82 5-0.75-0.72A0.36 0.36 0 0 1 0.73 4.01L6.96-2.44C7.17-2.65 7.5-2.67 7.73-2.46l3.3 3.19C11.25 0.95 11.24 1.28 11.03 1.5l-0.36 0.38 5.11 4.93c0.14 0.14 0.15 0.36 0.01 0.51l-1.4 1.45-4.37-4.22L10.39 4.17c0.21-0.22 0.22-0.55 0-0.76L7.08 0.22c-0.22-0.22-0.56-0.19-0.77 0.02z" fill-rule="evenodd"></path><path d="M9.01 18.35c-0.14 0.14-0.36 0.14-0.5 0.01L-0.42 9.74c-0.14-0.14-0.15-0.36-0.01-0.5L5.8 2.79c0.21-0.22 0.55-0.24 0.76-0.03l3.31 3.19c0.22 0.22 0.22 0.55 0 0.77l-0.36 0.38 5.11 4.93c0.14 0.14 0.15 0.36 0.01 0.51l-5.62 5.81z" fill-rule="evenodd"></path></g><g id="SvgjsG1223"><path d="M12.21 14.05c0.21 0.2 0.58 0.22 0.81 0.04 0 0 0.33-0.26 0.66-0.6s0.58-0.69 0.59-0.69c0.17-0.24 0.14-0.6-0.07-0.8l-1.1-1.06c-0.21-0.2-0.3-0.55-0.2-0.78s0.54-0.83 0.83-0.83l1.53-0.02c0.3-0.01 0.55-0.25 0.57-0.55l-0.03-1.79c-0.03-0.29-0.3-0.53-0.59-0.53l-1.53 0.03c-0.29 0.01-0.6-0.18-0.68-0.4s-0.21-0.97-0.01-1.18L14.05 3.79c0.2-0.21 0.22-0.58 0.05-0.81 0 0-0.26-0.33-0.61-0.66s-0.69-0.58-0.69-0.59c-0.24-0.17-0.6-0.14-0.8 0.07l-1.06 1.1c-0.2 0.21-0.55 0.3-0.78 0.2s-0.83-0.54-0.83-0.83l-0.02-1.53C9.3 0.45 9.05 0.19 8.76 0.17l-1.79 0.03c-0.29 0.03-0.53 0.3-0.53 0.59l0.03 1.53c0.01 0.3-0.18 0.6-0.4 0.68s-0.97 0.21-1.18 0.01L3.79 1.95c-0.21-0.2-0.58-0.22-0.81-0.05 0 0-0.33 0.26-0.66 0.61s-0.58 0.69-0.59 0.69c-0.17 0.24-0.14 0.6 0.07 0.8l1.1 1.06c0.21 0.2 0.3 0.55 0.2 0.78-0.1 0.22-0.54 0.83-0.83 0.83l-1.52 0.03C0.45 6.7 0.19 6.95 0.17 7.24l0.03 1.79c0.03 0.29 0.3 0.53 0.6 0.53l1.52-0.03c0.29 0 0.6 0.18 0.68 0.4s0.21 0.97 0.01 1.18l-1.06 1.1c-0.2 0.21-0.22 0.58-0.04 0.81 0 0 0.26 0.33 0.6 0.66s0.69 0.58 0.69 0.59c0.24 0.17 0.6 0.14 0.8-0.07l1.06-1.1c0.2-0.21 0.55-0.3 0.78-0.2 0.22 0.1 0.83 0.54 0.83 0.83l0.03 1.53c0.01 0.3 0.25 0.55 0.54 0.57l1.79-0.03c0.29-0.03 0.53-0.3 0.53-0.59l-0.03-1.53c-0.01-0.3 0.18-0.6 0.4-0.68 0.23-0.08 0.97-0.21 1.18 0l1.1 1.06zM5.99 10.08c-1.15-1.11-1.18-2.94-0.07-4.09 1.11-1.15 2.94-1.18 4.09-0.07S11.19 8.86 10.08 10.01 7.14 11.19 5.99 10.08z"></path></g><g id="SvgjsG1219"><path d="M2.67 2.63c-2.89 2.99-2.81 7.76 0.19 10.65 2.99 2.89 7.76 2.81 10.65-0.19 1.51-1.56 2.2-3.6 2.1-5.61L12.82 7.63c0.06 1.26-0.37 2.55-1.32 3.52-1.81 1.88-4.81 1.93-6.7 0.12-1.88-1.81-1.93-4.81-0.11-6.7"></path><path d="M11.5 11.15c-1.81 1.88-4.81 1.93-6.7 0.12-1.88-1.81-1.93-4.81-0.11-6.7 0.94-0.98 2.21-1.46 3.47-1.44l0.05-2.8C6.2 0.3 4.18 1.07 2.67 2.63c-2.89 2.99-2.81 7.76 0.19 10.65 2.99 2.89 7.76 2.81 10.65-0.19"></path><path d="M12.58 1.3L14.49 3.15l-5.7 5.9L6.87 7.2z"></path></g><g id="SvgjsG1216"><path d="M8.94 18.51L-2.55 7.41 12.81 3.01l-3.87 15.5zM1 8.3l6.93 6.69L10.26 5.64 1 8.3h0z" fill-rule="evenodd"></path><path d="M7.9 7.17l0.91 0.88-2.39 2.47-0.91-0.88L7.9 7.17z m-2.79 2.88l0.91 0.88-0.7 0.73-0.91-0.88 0.7-0.73z" fill-rule="evenodd"></path></g><g id="SvgjsG1221"><path d="M9.54 17.92L-1.97 6.81 6.41-1.87l11.51 11.11-8.38 8.68z m-9.37-10.6l8.78 8.48L8.92 10.05l-1.08 0.02c-0.47 0.01-0.94-0.18-1.29-0.52l-0.01-0.01c-0.36-0.35-0.56-0.81-0.56-1.28l-0.02-1.1-5.79 0.16zM5.89 0.28l-5.72 5.92L5.95 6.04 5.89 0.28zM10.04 10.03l0.03 5.74L15.73 9.91l-5.69 0.12zM7 0.25l0.09 8c0 0.17 0.09 0.35 0.23 0.49l0 0c0.14 0.14 0.33 0.22 0.5 0.22L15.85 8.79 7 0.25z"></path></g><g id="SvgjsG1224"><use xlink:href="#SvgjsG1216" transform="translate(0, 0) scale(2.1)" fill="rgba(125, 125, 125, 0.53)"></use><use xlink:href="#SvgjsG1217" transform="translate(0, 94.5) scale(2.1)" fill="rgba(175, 175, 175, 1)"></use><use xlink:href="#SvgjsG1218" transform="translate(0, 189) scale(2.1)" fill="rgba(149, 149, 149, 0.38)"></use><use xlink:href="#SvgjsG1219" transform="translate(0, 283.5) scale(2.1)" fill="rgba(125, 125, 125, 0.53)"></use><use xlink:href="#SvgjsG1219" transform="translate(0, 378) scale(2.1)" fill="rgba(166, 0, 0, 0.31)"></use><use xlink:href="#SvgjsG1220" transform="translate(0, 472.5) scale(2.1)" fill="rgba(178, 0, 0, 0.35)"></use><use xlink:href="#SvgjsG1217" transform="translate(0, 567) scale(2.1)" fill="rgba(175, 175, 175, 1)"></use><use xlink:href="#SvgjsG1221" transform="translate(0, 661.5) scale(2.1)" fill="rgba(178, 0, 0, 0.35)"></use><use xlink:href="#SvgjsG1217" transform="translate(0, 756) scale(2.1)" fill="rgba(175, 175, 175, 1)"></use><use xlink:href="#SvgjsG1220" transform="translate(0, 850.5) scale(2.1)" fill="rgba(166, 0, 0, 0.31)"></use><use xlink:href="#SvgjsG1222" transform="translate(94.5, 0) scale(2.1)" fill="rgba(125, 125, 125, 0.53)"></use><use xlink:href="#SvgjsG1223" transform="translate(94.5, 94.5) scale(2.1)" fill="rgba(178, 0, 0, 0.35)"></use><use xlink:href="#SvgjsG1219" transform="translate(94.5, 189) scale(2.1)" fill="rgba(149, 149, 149, 0.38)"></use><use xlink:href="#SvgjsG1218" transform="translate(94.5, 283.5) scale(2.1)" fill="rgba(178, 0, 0, 0.35)"></use><use xlink:href="#SvgjsG1223" transform="translate(94.5, 378) scale(2.1)" fill="rgba(125, 125, 125, 0.53)"></use><use xlink:href="#SvgjsG1217" transform="translate(94.5, 472.5) scale(2.1)" fill="rgba(166, 0, 0, 0.31)"></use><use xlink:href="#SvgjsG1222" transform="translate(94.5, 567) scale(2.1)" fill="rgba(125, 125, 125, 0.53)"></use><use xlink:href="#SvgjsG1217" transform="translate(94.5, 661.5) scale(2.1)" fill="rgba(178, 0, 0, 0.35)"></use><use xlink:href="#SvgjsG1218" transform="translate(94.5, 756) scale(2.1)" fill="rgba(175, 175, 175, 1)"></use><use xlink:href="#SvgjsG1218" transform="translate(94.5, 850.5) scale(2.1)" fill="rgba(125, 125, 125, 0.53)"></use><use xlink:href="#SvgjsG1222" transform="translate(189, 0) scale(2.1)" fill="rgba(166, 0, 0, 0.31)"></use><use xlink:href="#SvgjsG1217" transform="translate(189, 94.5) scale(2.1)" fill="rgba(175, 175, 175, 1)"></use><use xlink:href="#SvgjsG1220" transform="translate(189, 189) scale(2.1)" fill="rgba(178, 0, 0, 0.35)"></use><use xlink:href="#SvgjsG1222" transform="translate(189, 283.5) scale(2.1)" fill="rgba(178, 0, 0, 0.35)"></use><use xlink:href="#SvgjsG1221" transform="translate(189, 378) scale(2.1)" fill="rgba(178, 0, 0, 0.35)"></use><use xlink:href="#SvgjsG1218" transform="translate(189, 472.5) scale(2.1)" fill="rgba(166, 0, 0, 0.31)"></use><use xlink:href="#SvgjsG1216" transform="translate(189, 567) scale(2.1)" fill="rgba(178, 0, 0, 0.35)"></use><use xlink:href="#SvgjsG1220" transform="translate(189, 661.5) scale(2.1)" fill="rgba(166, 0, 0, 0.31)"></use><use xlink:href="#SvgjsG1222" transform="translate(189, 756) scale(2.1)" fill="rgba(175, 175, 175, 1)"></use><use xlink:href="#SvgjsG1219" transform="translate(189, 850.5) scale(2.1)" fill="rgba(178, 0, 0, 0.35)"></use><use xlink:href="#SvgjsG1221" transform="translate(283.5, 0) scale(2.1)" fill="rgba(125, 125, 125, 0.53)"></use><use xlink:href="#SvgjsG1219" transform="translate(283.5, 94.5) scale(2.1)" fill="rgba(149, 149, 149, 0.38)"></use><use xlink:href="#SvgjsG1220" transform="translate(283.5, 189) scale(2.1)" fill="rgba(175, 175, 175, 1)"></use><use xlink:href="#SvgjsG1222" transform="translate(283.5, 283.5) scale(2.1)" fill="rgba(166, 0, 0, 0.31)"></use><use xlink:href="#SvgjsG1223" transform="translate(283.5, 378) scale(2.1)" fill="rgba(149, 149, 149, 0.38)"></use><use xlink:href="#SvgjsG1217" transform="translate(283.5, 472.5) scale(2.1)" fill="rgba(149, 149, 149, 0.38)"></use><use xlink:href="#SvgjsG1221" transform="translate(283.5, 567) scale(2.1)" fill="rgba(125, 125, 125, 0.53)"></use><use xlink:href="#SvgjsG1220" transform="translate(283.5, 661.5) scale(2.1)" fill="rgba(175, 175, 175, 1)"></use><use xlink:href="#SvgjsG1219" transform="translate(283.5, 756) scale(2.1)" fill="rgba(149, 149, 149, 0.38)"></use><use xlink:href="#SvgjsG1223" transform="translate(283.5, 850.5) scale(2.1)" fill="rgba(149, 149, 149, 0.38)"></use><use xlink:href="#SvgjsG1223" transform="translate(378, 0) scale(2.1)" fill="rgba(166, 0, 0, 0.31)"></use><use xlink:href="#SvgjsG1223" transform="translate(378, 94.5) scale(2.1)" fill="rgba(125, 125, 125, 0.53)"></use><use xlink:href="#SvgjsG1223" transform="translate(378, 189) scale(2.1)" fill="rgba(175, 175, 175, 1)"></use><use xlink:href="#SvgjsG1218" transform="translate(378, 283.5) scale(2.1)" fill="rgba(175, 175, 175, 1)"></use><use xlink:href="#SvgjsG1217" transform="translate(378, 378) scale(2.1)" fill="rgba(178, 0, 0, 0.35)"></use><use xlink:href="#SvgjsG1217" transform="translate(378, 472.5) scale(2.1)" fill="rgba(166, 0, 0, 0.31)"></use><use xlink:href="#SvgjsG1218" transform="translate(378, 567) scale(2.1)" fill="rgba(166, 0, 0, 0.31)"></use><use xlink:href="#SvgjsG1219" transform="translate(378, 661.5) scale(2.1)" fill="rgba(149, 149, 149, 0.38)"></use><use xlink:href="#SvgjsG1222" transform="translate(378, 756) scale(2.1)" fill="rgba(149, 149, 149, 0.38)"></use><use xlink:href="#SvgjsG1218" transform="translate(378, 850.5) scale(2.1)" fill="rgba(166, 0, 0, 0.31)"></use><use xlink:href="#SvgjsG1221" transform="translate(472.5, 0) scale(2.1)" fill="rgba(175, 175, 175, 1)"></use><use xlink:href="#SvgjsG1218" transform="translate(472.5, 94.5) scale(2.1)" fill="rgba(175, 175, 175, 1)"></use><use xlink:href="#SvgjsG1218" transform="translate(472.5, 189) scale(2.1)" fill="rgba(125, 125, 125, 0.53)"></use><use xlink:href="#SvgjsG1218" transform="translate(472.5, 283.5) scale(2.1)" fill="rgba(166, 0, 0, 0.31)"></use><use xlink:href="#SvgjsG1220" transform="translate(472.5, 378) scale(2.1)" fill="rgba(175, 175, 175, 1)"></use><use xlink:href="#SvgjsG1219" transform="translate(472.5, 472.5) scale(2.1)" fill="rgba(175, 175, 175, 1)"></use><use xlink:href="#SvgjsG1223" transform="translate(472.5, 567) scale(2.1)" fill="rgba(178, 0, 0, 0.35)"></use><use xlink:href="#SvgjsG1223" transform="translate(472.5, 661.5) scale(2.1)" fill="rgba(178, 0, 0, 0.35)"></use><use xlink:href="#SvgjsG1223" transform="translate(472.5, 756) scale(2.1)" fill="rgba(166, 0, 0, 0.31)"></use><use xlink:href="#SvgjsG1220" transform="translate(472.5, 850.5) scale(2.1)" fill="rgba(178, 0, 0, 0.35)"></use><use xlink:href="#SvgjsG1220" transform="translate(567, 0) scale(2.1)" fill="rgba(175, 175, 175, 1)"></use><use xlink:href="#SvgjsG1219" transform="translate(567, 94.5) scale(2.1)" fill="rgba(175, 175, 175, 1)"></use><use xlink:href="#SvgjsG1220" transform="translate(567, 189) scale(2.1)" fill="rgba(178, 0, 0, 0.35)"></use><use xlink:href="#SvgjsG1218" transform="translate(567, 283.5) scale(2.1)" fill="rgba(175, 175, 175, 1)"></use><use xlink:href="#SvgjsG1219" transform="translate(567, 378) scale(2.1)" fill="rgba(125, 125, 125, 0.53)"></use><use xlink:href="#SvgjsG1220" transform="translate(567, 472.5) scale(2.1)" fill="rgba(166, 0, 0, 0.31)"></use><use xlink:href="#SvgjsG1221" transform="translate(567, 567) scale(2.1)" fill="rgba(166, 0, 0, 0.31)"></use><use xlink:href="#SvgjsG1221" transform="translate(567, 661.5) scale(2.1)" fill="rgba(175, 175, 175, 1)"></use><use xlink:href="#SvgjsG1222" transform="translate(567, 756) scale(2.1)" fill="rgba(149, 149, 149, 0.38)"></use><use xlink:href="#SvgjsG1217" transform="translate(567, 850.5) scale(2.1)" fill="rgba(125, 125, 125, 0.53)"></use><use xlink:href="#SvgjsG1220" transform="translate(661.5, 0) scale(2.1)" fill="rgba(166, 0, 0, 0.31)"></use><use xlink:href="#SvgjsG1218" transform="translate(661.5, 94.5) scale(2.1)" fill="rgba(149, 149, 149, 0.38)"></use><use xlink:href="#SvgjsG1217" transform="translate(661.5, 189) scale(2.1)" fill="rgba(175, 175, 175, 1)"></use><use xlink:href="#SvgjsG1216" transform="translate(661.5, 283.5) scale(2.1)" fill="rgba(149, 149, 149, 0.38)"></use><use xlink:href="#SvgjsG1220" transform="translate(661.5, 378) scale(2.1)" fill="rgba(178, 0, 0, 0.35)"></use><use xlink:href="#SvgjsG1220" transform="translate(661.5, 472.5) scale(2.1)" fill="rgba(125, 125, 125, 0.53)"></use><use xlink:href="#SvgjsG1222" transform="translate(661.5, 567) scale(2.1)" fill="rgba(166, 0, 0, 0.31)"></use><use xlink:href="#SvgjsG1216" transform="translate(661.5, 661.5) scale(2.1)" fill="rgba(178, 0, 0, 0.35)"></use><use xlink:href="#SvgjsG1218" transform="translate(661.5, 756) scale(2.1)" fill="rgba(175, 175, 175, 1)"></use><use xlink:href="#SvgjsG1218" transform="translate(661.5, 850.5) scale(2.1)" fill="rgba(149, 149, 149, 0.38)"></use><use xlink:href="#SvgjsG1219" transform="translate(756, 0) scale(2.1)" fill="rgba(175, 175, 175, 1)"></use><use xlink:href="#SvgjsG1217" transform="translate(756, 94.5) scale(2.1)" fill="rgba(149, 149, 149, 0.38)"></use><use xlink:href="#SvgjsG1219" transform="translate(756, 189) scale(2.1)" fill="rgba(175, 175, 175, 1)"></use><use xlink:href="#SvgjsG1220" transform="translate(756, 283.5) scale(2.1)" fill="rgba(178, 0, 0, 0.35)"></use><use xlink:href="#SvgjsG1221" transform="translate(756, 378) scale(2.1)" fill="rgba(175, 175, 175, 1)"></use><use xlink:href="#SvgjsG1220" transform="translate(756, 472.5) scale(2.1)" fill="rgba(125, 125, 125, 0.53)"></use><use xlink:href="#SvgjsG1216" transform="translate(756, 567) scale(2.1)" fill="rgba(166, 0, 0, 0.31)"></use><use xlink:href="#SvgjsG1221" transform="translate(756, 661.5) scale(2.1)" fill="rgba(149, 149, 149, 0.38)"></use><use xlink:href="#SvgjsG1220" transform="translate(756, 756) scale(2.1)" fill="rgba(149, 149, 149, 0.38)"></use><use xlink:href="#SvgjsG1216" transform="translate(756, 850.5) scale(2.1)" fill="rgba(166, 0, 0, 0.31)"></use><use xlink:href="#SvgjsG1223" transform="translate(850.5, 0) scale(2.1)" fill="rgba(125, 125, 125, 0.53)"></use><use xlink:href="#SvgjsG1220" transform="translate(850.5, 94.5) scale(2.1)" fill="rgba(125, 125, 125, 0.53)"></use><use xlink:href="#SvgjsG1218" transform="translate(850.5, 189) scale(2.1)" fill="rgba(149, 149, 149, 0.38)"></use><use xlink:href="#SvgjsG1221" transform="translate(850.5, 283.5) scale(2.1)" fill="rgba(166, 0, 0, 0.31)"></use><use xlink:href="#SvgjsG1219" transform="translate(850.5, 378) scale(2.1)" fill="rgba(178, 0, 0, 0.35)"></use><use xlink:href="#SvgjsG1221" transform="translate(850.5, 472.5) scale(2.1)" fill="rgba(166, 0, 0, 0.31)"></use><use xlink:href="#SvgjsG1218" transform="translate(850.5, 567) scale(2.1)" fill="rgba(166, 0, 0, 0.31)"></use><use xlink:href="#SvgjsG1222" transform="translate(850.5, 661.5) scale(2.1)" fill="rgba(125, 125, 125, 0.53)"></use><use xlink:href="#SvgjsG1221" transform="translate(850.5, 756) scale(2.1)" fill="rgba(166, 0, 0, 0.31)"></use><use xlink:href="#SvgjsG1220" transform="translate(850.5, 850.5) scale(2.1)" fill="rgba(166, 0, 0, 0.31)"></use></g></defs></svg>