<?xml version="1.0" encoding="utf-8"?>
<!-- Generator: Moho 12.5 build 22438 -->
<!DOCTYPE svg PUBLIC "-//W3C//DTD SVG 1.1//EN" "http://www.w3.org/Graphics/SVG/1.1/DTD/svg11.dtd">
<svg version="1.1" id="Frame_0" xmlns="http://www.w3.org/2000/svg" xmlns:xlink="http://www.w3.org/1999/xlink" width="1080px" height="1080px">
<g id="Layer_1">
<path fill="#f2f2f2" fill-rule="evenodd" stroke="#292929" stroke-width="21" stroke-linecap="round" stroke-linejoin="round" d="M 40.624 563.705 C 40.675 563.656 543.215 67.890 543.265 67.841 C 543.315 67.890 1045.856 563.656 1045.906 563.705 C 1045.856 563.755 543.315 1059.521 543.265 1059.571 C 543.215 1059.521 40.675 563.755 40.624 563.705 Z"/>
<path fill="#292929" fill-rule="evenodd" stroke="none" d="M 156.227 176.666 C 156.304 176.667 925.009 181.884 925.086 181.885 C 925.086 181.962 930.304 950.668 930.304 950.744 C 930.227 950.744 161.521 945.527 161.444 945.527 C 161.444 945.450 156.227 176.743 156.227 176.666 Z"/>
<path fill="#f2f2f2" fill-rule="evenodd" stroke="none" d="M 187.845 208.284 C 187.916 208.285 893.824 213.076 893.894 213.076 C 893.895 213.147 898.685 919.056 898.686 919.126 C 898.615 919.126 192.707 914.336 192.636 914.335 C 192.636 914.265 187.845 208.355 187.845 208.284 Z"/>
</g>
<g id="cuador_blanco">
<path fill="#292929" fill-rule="evenodd" stroke="none" d="M 239.065 259.504 C 239.125 259.505 843.305 263.605 843.366 263.606 C 843.366 263.666 847.466 867.846 847.466 867.907 C 847.406 867.906 243.226 863.806 243.165 863.806 C 243.165 863.745 239.065 259.565 239.065 259.504 Z"/>
<path fill="#292929" fill-rule="evenodd" stroke="none" d="M 898.957 551.782 C 898.952 551.782 844.054 551.782 844.049 551.782 C 844.049 551.780 844.049 528.099 844.049 528.096 C 844.054 528.096 898.952 528.096 898.957 528.096 C 898.957 528.099 898.957 551.780 898.957 551.782 Z"/>
<path fill="#292929" fill-rule="evenodd" stroke="none" d="M 242.572 551.782 C 242.567 551.782 187.669 551.782 187.664 551.782 C 187.664 551.780 187.664 528.099 187.664 528.096 C 187.669 528.096 242.567 528.096 242.572 528.096 C 242.572 528.099 242.572 551.780 242.572 551.782 Z"/>
<path fill="#292929" fill-rule="evenodd" stroke="none" d="M 531.468 921.987 C 531.468 921.981 531.468 867.084 531.468 867.078 C 531.470 867.078 555.151 867.078 555.153 867.078 C 555.153 867.084 555.153 921.981 555.153 921.987 C 555.151 921.987 531.470 921.987 531.468 921.987 Z"/>
<path fill="#292929" fill-rule="evenodd" stroke="none" d="M 531.468 265.602 C 531.468 265.596 531.468 210.699 531.468 210.693 C 531.470 210.693 555.151 210.693 555.153 210.693 C 555.153 210.699 555.153 265.596 555.153 265.602 C 555.151 265.602 531.470 265.602 531.468 265.602 Z"/>
</g>
<g id="">
<path fill="#dddddd" fill-rule="evenodd" stroke="none" d="M 382.073 792.691 C 368.025 792.691 357.302 788.783 349.904 780.969 C 342.589 773.155 338.930 762.058 338.930 747.677 C 338.931 740.528 340.054 734.170 342.298 728.600 C 344.542 722.947 347.617 718.208 351.524 714.384 C 355.431 710.476 360.088 707.525 365.493 705.530 C 370.896 703.535 376.756 702.538 383.073 702.538 C 386.730 702.538 390.055 702.828 393.047 703.410 C 396.041 703.909 398.660 704.533 400.905 705.281 C 403.149 705.946 405.020 706.652 406.516 707.401 C 408.011 708.149 409.091 708.733 409.755 709.148 C 407.882 714.385 406.014 719.622 404.145 724.857 C 401.485 723.444 398.368 722.239 394.794 721.242 C 391.303 720.245 387.314 719.746 382.825 719.746 C 379.832 719.746 376.881 720.245 373.971 721.242 C 371.144 722.240 368.609 723.861 366.364 726.105 C 364.203 728.266 362.456 731.092 361.126 734.583 C 359.795 738.075 359.130 742.316 359.130 747.304 C 359.130 751.294 359.546 755.035 360.378 758.526 C 361.292 761.933 362.706 764.883 364.617 767.376 C 366.612 769.870 369.188 771.867 372.347 773.363 C 375.507 774.777 379.331 775.483 383.821 775.483 C 386.647 775.482 389.183 775.315 391.427 774.983 C 393.672 774.651 395.668 774.279 397.414 773.863 C 399.159 773.364 400.696 772.821 402.025 772.239 C 403.355 771.657 404.560 771.118 405.640 770.620 C 407.427 775.816 409.215 781.012 411.003 786.208 C 408.260 787.871 404.394 789.366 399.406 790.695 C 394.418 792.025 388.641 792.691 382.073 792.691 Z"/>
<path fill="#dddddd" fill-rule="evenodd" stroke="none" d="M 438.185 751.544 C 446.374 751.545 454.563 751.547 462.752 751.544 C 462.668 749.964 462.376 748.425 461.877 746.929 C 461.461 745.432 460.755 744.102 459.757 742.938 C 458.843 741.774 457.638 740.818 456.142 740.070 C 454.729 739.323 452.943 738.950 450.783 738.950 C 448.704 738.950 446.917 739.322 445.420 740.070 C 443.923 740.735 442.675 741.649 441.677 742.814 C 440.679 743.977 439.891 745.349 439.309 746.929 C 438.810 748.425 438.435 749.964 438.185 751.544 M 421.105 772.115 C 419.775 767.959 419.109 763.471 419.109 758.650 C 419.109 752.831 419.983 747.760 421.729 743.437 C 423.557 739.031 425.926 735.373 428.835 732.464 C 431.744 729.555 435.069 727.353 438.809 725.857 C 442.633 724.360 446.540 723.610 450.531 723.610 C 459.842 723.609 467.198 726.479 472.602 732.216 C 478.005 737.868 480.713 746.222 480.708 757.278 C 480.497 762.141 480.415 763.263 480.332 764.261 C 466.283 764.265 452.234 764.260 438.185 764.261 C 438.601 768.085 440.389 771.119 443.548 773.363 C 446.707 775.607 450.946 776.730 456.266 776.730 C 459.675 776.731 463.001 776.441 466.243 775.858 C 469.568 775.193 472.268 774.402 474.346 773.487 C 475.178 778.517 476.010 783.546 476.841 788.576 C 475.843 789.075 474.513 789.573 472.850 790.072 C 471.188 790.570 469.317 790.987 467.239 791.319 C 465.245 791.735 463.084 792.066 460.757 792.315 C 458.429 792.565 456.102 792.691 453.774 792.691 C 447.872 792.692 442.719 791.817 438.313 790.072 C 433.990 788.326 430.373 785.958 427.464 782.965 C 424.637 779.889 422.518 776.272 421.105 772.115 M 480.708 757.278 C 480.708 758.359 480.664 759.564 480.581 760.894 Z"/>
<path fill="#dddddd" fill-rule="evenodd" stroke="none" d="M 495.045 727.601 C 498.205 726.687 502.279 725.857 507.267 725.109 C 512.255 724.278 517.492 723.862 522.979 723.861 C 528.547 723.861 533.160 724.609 536.817 726.105 C 540.558 727.518 543.509 729.556 545.671 732.216 C 547.832 734.875 549.371 738.033 550.286 741.690 C 551.201 745.348 551.657 749.422 551.657 753.911 C 551.657 766.256 551.657 778.600 551.657 790.943 C 545.463 790.944 539.270 790.944 533.077 790.943 C 533.077 779.347 533.076 767.751 533.077 756.155 C 533.078 750.170 532.289 745.931 530.710 743.437 C 529.130 740.943 526.178 739.698 521.856 739.698 C 520.526 739.698 519.113 739.780 517.617 739.946 C 516.120 740.029 514.789 740.152 513.625 740.318 C 513.620 757.194 513.625 774.069 513.625 790.943 C 507.432 790.943 501.239 790.943 495.045 790.943 C 495.045 769.829 495.043 748.715 495.045 727.601 Z"/>
<path fill="#dddddd" fill-rule="evenodd" stroke="none" d="M 567.866 709.021 C 574.059 708.024 580.253 707.028 586.446 706.029 C 586.446 712.473 586.446 718.915 586.446 725.357 C 593.885 725.358 601.325 725.358 608.765 725.357 C 608.765 730.511 608.765 735.665 608.765 740.818 C 601.325 740.819 593.885 740.818 586.446 740.818 C 586.446 748.508 586.446 756.197 586.446 763.885 C 586.446 767.793 587.111 770.911 588.442 773.239 C 589.855 775.567 592.639 776.731 596.796 776.730 C 598.791 776.730 600.828 776.563 602.906 776.230 C 605.067 775.815 607.020 775.276 608.765 774.611 C 609.638 779.433 610.512 784.254 611.385 789.076 C 609.140 789.990 606.646 790.778 603.902 791.443 C 601.160 792.108 597.794 792.442 593.804 792.443 C 588.732 792.444 584.533 791.778 581.207 790.447 C 577.882 789.034 575.224 787.120 573.229 784.709 C 571.235 782.216 569.821 779.224 568.990 775.734 C 568.241 772.243 567.866 768.377 567.866 764.137 C 567.865 745.765 567.865 727.393 567.866 709.021 Z"/>
<path fill="#dddddd" fill-rule="evenodd" stroke="none" d="M 704.029 728.225 C 706.274 733.794 707.397 740.278 707.397 747.677 C 707.397 755.075 706.273 761.600 704.029 767.252 C 701.869 772.822 698.878 777.521 695.055 781.345 C 691.231 785.086 686.658 787.912 681.338 789.823 C 676.100 791.735 670.447 792.691 664.378 792.691 C 658.476 792.691 652.906 791.735 647.669 789.823 C 642.432 787.912 637.859 785.086 633.952 781.345 C 630.045 777.521 626.970 772.823 624.726 767.252 C 622.482 761.600 621.359 755.075 621.359 747.677 C 621.359 740.278 622.522 733.794 624.850 728.225 C 627.178 722.572 630.297 717.835 634.204 714.011 C 638.195 710.187 642.766 707.318 647.921 705.406 C 653.157 703.494 658.643 702.538 664.378 702.538 C 670.280 702.538 675.849 703.493 681.086 705.406 C 686.324 707.318 690.896 710.187 694.803 714.011 C 698.710 717.835 701.785 722.573 704.029 728.225 M 642.930 736.331 C 641.933 739.739 641.435 743.521 641.435 747.677 C 641.434 751.917 641.932 755.741 642.930 759.150 C 644.011 762.557 645.509 765.507 647.421 768.000 C 649.416 770.410 651.826 772.281 654.652 773.611 C 657.478 774.941 660.720 775.607 664.378 775.607 C 667.952 775.607 671.153 774.941 673.980 773.611 C 676.890 772.281 679.302 770.411 681.214 768.000 C 683.208 765.507 684.704 762.557 685.701 759.150 C 686.782 755.741 687.321 751.917 687.321 747.677 C 687.321 743.438 686.781 739.615 685.701 736.207 C 684.704 732.715 683.209 729.763 681.214 727.353 C 679.302 724.859 676.890 722.948 673.980 721.618 C 671.153 720.288 667.952 719.622 664.378 719.622 C 660.720 719.622 657.478 720.329 654.652 721.742 C 651.826 723.072 649.416 724.984 647.421 727.477 C 645.509 729.888 644.011 732.839 642.930 736.331 Z"/>
<path fill="#dddddd" fill-rule="evenodd" stroke="none" d="M 747.176 776.106 C 749.918 776.106 752.162 775.898 753.907 775.483 C 755.737 774.984 757.192 774.360 758.274 773.611 C 759.354 772.780 760.102 771.824 760.517 770.744 C 760.933 769.663 761.141 768.458 761.141 767.128 C 761.141 764.302 759.810 761.975 757.150 760.146 C 754.490 758.234 749.917 756.197 743.433 754.035 C 740.607 753.038 737.781 751.915 734.955 750.668 C 732.128 749.338 729.593 747.717 727.348 745.805 C 725.104 743.810 723.275 741.441 721.861 738.698 C 720.448 735.872 719.742 732.463 719.742 728.473 C 719.742 724.483 720.490 720.909 721.986 717.751 C 723.482 714.509 725.601 711.765 728.344 709.521 C 731.088 707.276 734.414 705.573 738.322 704.410 C 742.229 703.163 746.635 702.538 751.539 702.538 C 757.358 702.538 762.388 703.162 766.628 704.410 C 770.867 705.657 774.359 707.028 777.102 708.525 C 775.231 713.638 773.361 718.750 771.491 723.861 C 769.080 722.614 766.378 721.533 763.385 720.618 C 760.475 719.621 756.943 719.122 752.787 719.122 C 748.131 719.123 744.764 719.788 742.685 721.118 C 740.691 722.365 739.694 724.318 739.694 726.977 C 739.693 728.556 740.065 729.887 740.814 730.968 C 741.562 732.049 742.602 733.045 743.933 733.959 C 745.346 734.791 746.926 735.582 748.672 736.331 C 750.500 736.996 752.494 737.702 754.655 738.450 C 759.144 740.113 763.051 741.775 766.376 743.437 C 769.701 745.017 772.445 746.887 774.606 749.048 C 776.851 751.209 778.513 753.745 779.593 756.655 C 780.674 759.564 781.216 763.096 781.217 767.252 C 781.217 775.316 778.388 781.592 772.735 786.081 C 767.083 790.486 758.563 792.690 747.176 792.691 C 743.352 792.691 739.902 792.442 736.826 791.943 C 733.750 791.528 731.007 790.989 728.596 790.323 C 726.268 789.658 724.231 788.949 722.485 788.200 C 720.823 787.452 719.410 786.745 718.246 786.081 C 720.075 780.927 721.903 775.773 723.733 770.620 C 726.309 772.033 729.467 773.323 733.207 774.487 C 737.032 775.568 741.688 776.107 747.176 776.106 Z"/>
</g>
<g id="">
<path fill="#dddddd" fill-rule="evenodd" stroke="none" d="M 381.606 496.709 C 370.771 496.709 361.419 495.223 353.552 492.254 C 345.685 489.137 339.154 484.906 333.958 479.563 C 328.911 474.070 325.125 467.613 322.601 460.191 C 320.226 452.620 319.037 444.307 319.037 435.252 C 319.036 403.264 319.037 371.275 319.037 339.284 C 330.616 339.286 342.195 339.286 353.775 339.284 C 353.774 370.310 353.775 401.335 353.775 432.359 C 353.775 438.593 354.442 443.936 355.778 448.389 C 357.262 452.694 359.192 456.258 361.567 459.078 C 364.091 461.751 367.061 463.680 370.476 464.868 C 374.038 466.055 377.896 466.648 382.052 466.648 C 390.514 466.648 397.343 464.052 402.539 458.856 C 407.883 453.660 410.555 444.828 410.554 432.359 C 410.553 401.335 410.553 370.310 410.554 339.284 C 422.131 339.286 433.709 339.286 445.288 339.284 C 445.287 371.275 445.285 403.264 445.288 435.252 C 445.289 444.307 444.029 452.620 441.505 460.191 C 438.982 467.762 435.122 474.293 429.926 479.785 C 424.731 485.129 418.125 489.285 410.109 492.254 C 402.093 495.224 392.592 496.709 381.606 496.709 Z"/>
<path fill="#dddddd" fill-rule="evenodd" stroke="none" d="M 625.872 380.479 C 630.028 390.424 632.106 402.373 632.106 416.326 C 632.106 429.686 630.028 441.340 625.872 451.286 C 621.715 461.232 615.777 469.470 608.058 476.002 C 600.487 482.533 591.210 487.431 580.226 490.697 C 569.241 493.962 556.920 495.596 543.263 495.596 C 537.028 495.596 529.753 495.300 521.440 494.706 C 513.128 494.260 504.965 493.220 496.950 491.587 C 496.952 441.489 496.952 391.390 496.950 341.291 C 504.965 339.806 513.276 338.840 521.885 338.394 C 530.644 337.800 538.141 337.504 544.376 337.504 C 557.588 337.504 569.538 338.989 580.226 341.958 C 591.062 344.927 600.339 349.603 608.058 355.985 C 615.777 362.368 621.715 370.533 625.872 380.479 M 531.684 367.787 C 531.683 400.297 531.682 432.805 531.684 465.313 C 533.317 465.461 535.172 465.610 537.251 465.758 C 539.477 465.758 542.075 465.758 545.043 465.758 C 562.411 465.758 575.251 461.379 583.564 452.621 C 592.026 443.863 596.256 431.764 596.256 416.326 C 596.255 400.146 592.247 387.901 584.232 379.589 C 576.216 371.276 563.524 367.120 546.156 367.119 C 543.781 367.119 541.332 367.194 538.809 367.342 C 536.285 367.342 533.910 367.490 531.684 367.787 Z"/>
<path fill="#dddddd" fill-rule="evenodd" stroke="none" d="M 713.157 366.226 C 713.156 377.435 713.156 388.643 713.157 399.851 C 718.796 399.851 724.436 399.852 730.077 399.851 C 740.766 399.850 748.411 398.514 753.013 395.841 C 757.614 393.021 759.915 388.568 759.915 382.482 C 759.915 376.247 757.540 371.868 752.790 369.345 C 748.040 366.821 741.064 365.558 731.861 365.558 C 728.892 365.558 725.700 365.632 722.285 365.781 C 718.871 365.781 715.828 365.929 713.157 366.226 M 734.977 426.347 C 727.703 426.348 720.430 426.348 713.157 426.347 C 713.156 439.633 713.156 452.918 713.157 466.203 C 715.680 466.500 718.426 466.722 721.395 466.871 C 724.364 467.019 727.630 467.093 731.193 467.093 C 741.583 467.093 749.969 465.610 756.351 462.642 C 762.735 459.674 765.927 454.181 765.927 446.164 C 765.927 439.039 763.256 433.993 757.912 431.024 C 752.568 427.906 744.923 426.347 734.977 426.347 M 783.296 483.349 C 771.569 491.514 754.051 495.596 730.745 495.596 C 722.284 495.596 713.822 495.300 705.361 494.706 C 697.048 494.260 688.364 493.072 679.310 491.142 C 679.311 441.266 679.312 391.390 679.310 341.513 C 686.435 340.177 694.229 339.211 702.690 338.616 C 711.152 337.874 719.020 337.504 726.294 337.504 C 736.091 337.504 745.071 338.245 753.236 339.729 C 761.548 341.065 768.673 343.440 774.610 346.854 C 780.549 350.269 785.152 354.797 788.418 360.440 C 791.832 365.932 793.537 372.760 793.537 380.924 C 793.536 393.244 787.601 402.967 775.726 410.091 C 785.524 413.802 792.203 418.851 795.766 425.234 C 799.328 431.617 801.110 438.816 801.110 446.831 C 801.110 463.012 795.172 475.185 783.296 483.349 Z"/>
</g>
<g id="">
<path fill="#dddddd" fill-rule="evenodd" stroke="none" d="M 391.515 649.095 C 396.414 649.095 400.422 648.721 403.539 647.979 C 406.806 647.088 409.405 645.977 411.335 644.641 C 413.265 643.156 414.599 641.448 415.341 639.519 C 416.083 637.589 416.454 635.436 416.453 633.061 C 416.453 628.014 414.079 623.858 409.329 620.592 C 404.578 617.178 396.414 613.541 384.835 609.681 C 379.788 607.899 374.742 605.895 369.695 603.668 C 364.648 601.293 360.121 598.399 356.113 594.986 C 352.105 591.423 348.838 587.193 346.314 582.294 C 343.791 577.247 342.531 571.160 342.531 564.035 C 342.531 556.910 343.865 550.527 346.537 544.886 C 349.209 539.097 352.995 534.199 357.894 530.191 C 362.792 526.183 368.730 523.138 375.707 521.060 C 382.684 518.833 390.552 517.722 399.311 517.722 C 409.701 517.722 418.682 518.834 426.252 521.060 C 433.823 523.286 440.058 525.735 444.956 528.407 C 441.615 537.539 438.275 546.669 434.935 555.797 C 430.630 553.571 425.806 551.641 420.463 550.008 C 415.267 548.226 408.959 547.334 401.536 547.334 C 393.223 547.334 387.211 548.523 383.500 550.898 C 379.937 553.125 378.154 556.614 378.155 561.365 C 378.156 564.185 378.826 566.559 380.162 568.489 C 381.497 570.419 383.351 572.201 385.725 573.834 C 388.249 575.318 391.071 576.726 394.189 578.062 C 397.454 579.249 401.015 580.513 404.874 581.849 C 412.891 584.818 419.869 587.785 425.807 590.754 C 431.745 593.574 436.642 596.916 440.502 600.775 C 444.510 604.635 447.481 609.162 449.411 614.357 C 451.341 619.553 452.304 625.862 452.304 633.284 C 452.303 647.682 447.258 658.890 437.164 666.905 C 427.069 674.773 411.853 678.707 391.515 678.707 C 384.686 678.707 378.526 678.262 373.033 677.372 C 367.541 676.630 362.643 675.666 358.339 674.479 C 354.182 673.291 350.544 672.029 347.427 670.692 C 344.458 669.356 341.935 668.093 339.857 666.905 C 343.124 657.703 346.390 648.499 349.656 639.296 C 354.257 641.820 359.897 644.120 366.576 646.198 C 373.404 648.129 381.717 649.096 391.515 649.095 Z"/>
<path fill="#dddddd" fill-rule="evenodd" stroke="none" d="M 568.756 550.230 C 564.600 549.489 559.998 549.118 554.952 549.118 C 552.428 549.118 549.905 549.192 547.382 549.340 C 545.007 549.489 542.928 549.637 541.147 549.785 C 541.146 564.631 541.147 579.475 541.147 594.318 C 544.784 594.319 548.421 594.319 552.059 594.318 C 564.082 594.318 573.137 592.685 579.223 589.419 C 585.309 586.153 588.350 580.066 588.350 571.160 C 588.350 566.856 587.534 563.294 585.902 560.474 C 584.418 557.653 582.192 555.424 579.223 553.791 C 576.402 552.009 572.913 550.824 568.756 550.230 M 530.458 520.392 C 538.920 519.798 546.343 519.502 552.726 519.502 C 575.734 519.502 593.399 523.585 605.719 531.749 C 618.040 539.765 624.200 552.976 624.201 571.382 C 624.201 589.939 617.966 603.374 605.497 611.687 C 593.028 619.851 575.215 623.934 552.059 623.934 C 548.421 623.934 544.784 623.934 541.147 623.934 C 541.147 641.153 541.147 658.372 541.147 675.591 C 529.569 675.591 517.991 675.591 506.413 675.591 C 506.413 624.899 506.416 574.206 506.413 523.511 C 513.983 522.027 521.998 520.986 530.458 520.392 Z"/>
<path fill="#dddddd" fill-rule="evenodd" stroke="none" d="M 780.290 645.753 C 780.289 655.700 780.289 665.646 780.290 675.591 C 745.924 675.591 711.559 675.591 677.194 675.591 C 677.193 624.156 677.194 572.720 677.194 521.282 C 688.773 521.284 700.352 521.284 711.931 521.282 C 711.931 562.774 711.931 604.264 711.931 645.753 C 734.717 645.754 757.503 645.754 780.290 645.753 Z"/>
</g>
</svg>
